<svg width="1052" height="342" viewBox="0 0 1052 342" fill="none" xmlns="http://www.w3.org/2000/svg">
<path d="M72.8567 3V1.5H71.3567H55H53.5V3V154.893V156.393H55H71.3567H72.8567V154.893V3Z" fill="#E5E5E5" stroke="#E5E5E5" stroke-width="3"/>
<path d="M103.909 156.393H105.409V154.893V53.9428L144.261 155.429L144.63 156.393H145.662H163.202H165.382L164.603 154.357L148.236 111.579L170.257 53.9561V154.893V156.393H171.757H188.168H189.668V154.893V3V1.5H188.168H171.757H170.627H169.595L169.226 2.46407L137.859 84.463L106.439 2.4633L106.07 1.5H105.039H103.909H87.498H85.998V3V154.893V156.393H87.498H103.909Z" fill="#E5E5E5" stroke="#E5E5E5" stroke-width="3"/>
<path d="M220.72 156.393H222.22V154.893V53.9428L261.072 155.429L261.441 156.393H262.473H280.014H282.194L281.415 154.357L265.047 111.579L287.069 53.9561V154.893V156.393H288.569H304.979H306.479V154.893V3V1.5H304.979H288.569H287.439H286.407L286.038 2.46407L254.67 84.463L223.251 2.4633L222.882 1.5H221.85H220.72H204.31H202.81V3V154.893V156.393H204.31H220.72Z" fill="#E5E5E5" stroke="#E5E5E5" stroke-width="3"/>
<path d="M319.621 154.893V156.393H321.121H333.765H337.477H375.572H377.072V154.893V138.536V137.036H375.572H338.977V75.8688L351.321 88.2122L351.76 88.6516H352.381H375.572H379.197L376.632 86.0902L338.977 48.4893V20.9106H375.572H377.072V19.4106V3V1.5H375.572H337.477H333.765H321.121H319.621V3V154.893Z" fill="#E5E5E5" stroke="#E5E5E5" stroke-width="3"/>
<path d="M440.812 88.759H448.155H453.589H464.512H466.012V87.259V70.9023V31.6241V31.0028L465.572 30.5635L436.948 1.93933L436.509 1.5H435.887H408.07H400.86H400.376H391.713H390.213V3V155V156.5H391.713H408.07H409.57V155V88.759H420.059L445.624 155.536L445.993 156.5H447.025H464.566H466.746L465.966 154.464L440.812 88.759ZM446.655 69.4023H409.57V20.9106H428.486L446.655 39.0788V69.4023Z" fill="#E5E5E5" stroke="#E5E5E5" stroke-width="3"/>
<path d="M534.735 137.036H480.708H479.208V138.536V154.893V156.393H480.708H536.235H552.591H554.091V154.893V138.536V126.483V106.36V103.347V102.726L553.653 102.287L498.618 47.199V20.9106H516.566L528.394 32.739L528.834 33.1783H529.455H552.591H556.208L553.653 30.6187L525.029 1.94034L524.589 1.5H523.967H481.568H480.708H479.208V3V31.4632V51.3174V54.5994V55.2208L479.647 55.6601L534.735 110.748V137.036Z" fill="#E5E5E5" stroke="#E5E5E5" stroke-width="3"/>
<path d="M586.59 3V1.5H585.09H568.733H567.233V3V154.893V156.393H568.733H585.09H586.59V154.893V3Z" fill="#E5E5E5" stroke="#E5E5E5" stroke-width="3"/>
<path d="M619.482 2.67395L619.221 1.5H618.018H601.231H599.36L599.767 3.32622L633.611 155.219L633.872 156.393H635.075H635.505H651.862H652.292H653.495L653.756 155.219L687.6 3.32622L688.007 1.5H686.136H669.349H668.146L667.885 2.67395L643.683 111.35L619.482 2.67395Z" fill="#E5E5E5" stroke="#E5E5E5" stroke-width="3"/>
<path d="M700.778 154.893V156.393H702.278H714.922H718.635H756.729H758.229V154.893V138.536V137.036H756.729H720.135V75.8688L732.478 88.2122L732.917 88.6516H733.539H756.729H760.354L757.789 86.0902L720.135 48.4893V20.9106H756.729H758.229V19.4106V3V1.5H756.729H718.635H714.922H702.278H700.778V3V154.893Z" fill="#E5E5E5" stroke="#E5E5E5" stroke-width="3"/>
<path d="M351.115 339.882H353.096V337.901V248.164L387.721 338.609L388.209 339.882H389.572H405.727H408.607L407.578 337.193L392.585 298.007L411.626 248.182V337.901V339.882H413.607H428.722H430.703V337.901V198V196.019H428.722H413.607H412.566H411.203L410.716 197.292L382.384 271.355L354.006 197.291L353.518 196.019H352.156H351.115H336H334.019V198V337.901V339.882H336H351.115Z" fill="#E5E5E5" stroke="#E5E5E5" stroke-width="3.96226"/>
<path d="M441.608 337.901V339.882H443.589H455.235H458.655H493.742H495.723V337.901V322.835V320.854H493.742H460.636V266.563L470.981 276.909L471.562 277.489H472.382H493.742H498.529L495.142 274.106L460.636 239.649V215.096H493.742H495.723V213.115V198V196.019H493.742H458.655H455.235H443.589H441.608V198V337.901Z" fill="#E5E5E5" stroke="#E5E5E5" stroke-width="3.96226"/>
<path d="M574.273 215.096H576.254V213.115V198V196.019H574.273H508.609H506.628V198V213.115V215.096H508.609H531.902V337.901V339.882H533.883H548.998H550.979V337.901V215.096H574.273Z" fill="#E5E5E5" stroke="#E5E5E5" stroke-width="3.96226"/>
<path d="M606.32 338.148L615.181 267.728L642.565 295.112L647.982 338.148L648.2 339.882H649.947H665.162H667.407L667.127 337.654L649.534 197.753L649.316 196.019H647.568H642.761H632.354H621.898H610.301H606.733H604.986L604.767 197.753L587.174 337.654L586.894 339.882H589.14H604.354H606.102L606.32 338.148ZM633.408 259.042L632.828 258.462H632.008H616.363L621.812 215.096H632.49L638.686 264.319L633.408 259.042Z" fill="#E5E5E5" stroke="#E5E5E5" stroke-width="3.96226"/>
<path d="M697.075 198V196.019H695.094H680.028H678.047V198V311.536V312.357L678.627 312.937L704.992 339.302L705.572 339.882H706.393H706.424H706.455H706.486H706.517H706.548H706.579H706.61H706.642H706.673H706.704H706.735H706.766H706.797H706.828H706.859H706.89H706.921H706.952H706.983H707.015H707.046H707.077H707.108H707.139H707.17H707.201H707.232H707.263H707.294H707.326H707.357H707.388H707.419H707.45H707.481H707.512H707.543H707.574H707.606H707.637H707.668H707.699H707.73H707.761H707.792H707.823H707.854H707.886H707.917H707.948H707.979H708.01H708.041H708.072H708.103H708.135H708.166H708.197H708.228H708.259H708.29H708.321H708.352H708.384H708.415H708.446H708.477H708.508H708.539H708.57H708.602H708.633H708.664H708.695H708.726H708.757H708.788H708.82H708.851H708.882H708.913H708.944H708.975H709.006H709.038H709.069H709.1H709.131H709.162H709.193H709.225H709.256H709.287H709.318H709.349H709.38H709.411H709.443H709.474H709.505H709.536H709.567H709.598H709.63H709.661H709.692H709.723H709.754H709.785H709.817H709.848H709.879H709.91H709.941H709.972H710.004H710.035H710.066H710.097H710.128H710.159H710.191H710.222H710.253H710.284H710.315H710.347H710.378H710.409H710.44H710.471H710.502H710.534H710.565H710.596H710.627H710.658H710.69H710.721H710.752H710.783H710.814H710.845H710.877H710.908H710.939H710.97H711.001H711.033H711.064H711.095H711.126H711.157H711.189H711.22H711.251H711.282H711.313H711.345H711.376H711.407H711.438H711.469H711.501H711.532H711.563H711.594H711.625H711.657H711.688H711.719H711.75H711.781H711.813H711.844H711.875H711.906H711.937H711.969H712H712.031H712.062H712.093H712.125H712.156H712.187H712.218H712.249H712.281H712.312H712.343H712.374H712.405H712.437H712.468H712.499H712.53H712.561H712.593H712.624H712.655H712.686H712.717H712.749H712.78H712.811H712.842H712.874H712.905H712.936H712.967H712.998H713.03H713.061H713.092H713.123H713.154H713.186H713.217H713.248H713.279H713.31H713.342H713.373H713.404H713.435H713.467H713.498H713.529H713.56H713.591H713.623H713.654H713.685H713.716H713.747H713.779H713.81H713.841H713.872H713.904H713.935H713.966H713.997H714.028H714.06H714.091H714.122H714.153H714.185H714.216H714.247H714.278H714.309H714.341H714.372H714.403H714.434H714.465H714.497H714.528H714.559H714.59H714.622H714.653H714.684H714.715H714.746H714.778H714.809H714.84H714.871H714.902H714.934H714.965H714.996H715.027H715.059H715.09H715.121H715.152H715.183H715.215H715.246H715.277H715.308H715.339H715.371H715.402H715.433H715.464H715.496H715.527H715.558H715.589H715.62H715.652H715.683H715.714H715.745H715.776H715.808H715.839H715.87H715.901H715.933H715.964H715.995H716.026H716.057H716.089H716.12H716.151H716.182H716.213H716.245H716.276H716.307H716.338H716.369H716.401H716.432H716.463H716.494H716.525H716.557H716.588H716.619H716.65H716.681H716.713H716.744H716.775H716.806H716.837H716.869H716.9H716.931H716.962H716.993H717.025H717.056H717.087H717.118H717.149H717.181H717.212H717.243H717.274H717.305H717.337H717.368H717.399H717.43H717.461H717.493H717.524H717.555H717.586H717.617H717.649H717.68H717.711H717.742H717.773H717.805H717.836H717.867H717.898H717.929H717.96H717.992H718.023H718.054H718.085H718.116H718.148H718.179H718.21H718.241H718.272H718.304H718.335H718.366H718.397H718.428H718.459H718.491H718.522H718.553H718.584H718.615H718.646H718.678H718.709H718.74H718.771H718.802H718.834H718.865H718.896H718.927H718.958H718.989H719.021H719.052H719.083H719.114H719.145H719.176H719.208H719.239H719.27H719.301H719.332H719.363H719.394H719.426H719.457H719.488H719.519H719.55H719.581H719.613H719.644H719.675H719.706H719.737H719.768H719.799H719.831H719.862H719.893H719.924H719.955H719.986H720.017H720.049H720.08H720.111H720.142H720.173H720.204H720.235H720.267H720.298H720.329H720.36H720.391H720.422H720.453H720.485H720.516H720.547H720.578H720.609H720.64H720.671H720.702H720.734H720.765H720.796H720.827H720.858H720.889H720.92H720.951H720.983H721.014H721.045H721.076H721.107H721.138H721.169H721.2H721.231H721.263H721.294H721.325H721.356H721.387H721.418H721.449H721.48H721.511H721.542H721.574H721.605H721.636H721.667H721.698H721.729H721.76H721.791H721.822H721.853H721.884H721.916H721.947H721.978H722.009H722.04H722.071H722.102H722.133H722.164H722.195H722.226H722.257H722.288H722.32H722.351H723.171L723.752 339.302L750.116 312.937L750.696 312.357V311.536V198V196.019H748.715H733.65H731.668V198V304.472L715.286 320.854H713.458L697.075 304.472V198Z" fill="#E5E5E5" stroke="#E5E5E5" stroke-width="3.96226"/>
<path d="M761.601 337.901V339.882H763.583H775.229H778.648H813.735H815.716V337.901V322.835V320.854H813.735H780.629V266.563L790.975 276.909L791.555 277.489H792.375H813.735H818.523L815.135 274.106L780.629 239.649V215.096H813.735H815.716V213.115V198V196.019H813.735H778.648H775.229H763.583H761.601V198V337.901Z" fill="#E5E5E5" stroke="#E5E5E5" stroke-width="3.96226"/>
<path d="M874.696 277.588H880.588H885.593H895.653H897.634V275.607V260.542V224.364V223.544L897.054 222.963L870.689 196.599L870.109 196.019H869.289H843.667H837.027H836.581H828.602H826.621V198V338V339.981H828.602H843.667H845.649V338V277.588H854.297L877.697 338.708L878.184 339.981H879.547H895.703H898.583L897.553 337.292L874.696 277.588ZM878.607 258.56H845.649V215.096H862.224L878.607 231.479V258.56Z" fill="#E5E5E5" stroke="#E5E5E5" stroke-width="3.96226"/>
<path d="M959.733 320.854H910.57H908.589V322.835V337.901V339.882H910.57H961.714H976.779H978.76V337.901V322.835V311.735V293.2V290.425V289.605L978.181 289.025L927.666 238.461V215.096H943.35L954.069 225.815L954.649 226.395H955.469H976.779H981.556L978.181 223.015L951.817 196.6L951.236 196.019H950.414H911.363H910.57H908.589V198V224.216V242.503V245.526V246.346L909.169 246.927L959.733 297.49V320.854Z" fill="#E5E5E5" stroke="#E5E5E5" stroke-width="3.96226"/>
<path d="M989.665 337.901V339.882H991.646H1003.29H1006.71H1041.8H1043.78V337.901V322.835V320.854H1041.8H1008.69V266.563L1019.04 276.909L1019.62 277.489H1020.44H1041.8H1046.59L1043.2 274.106L1008.69 239.649V215.096H1041.8H1043.78V213.115V198V196.019H1041.8H1006.71H1003.29H991.646H989.665V198V337.901Z" fill="#E5E5E5" stroke="#E5E5E5" stroke-width="3.96226"/>
<path d="M1.488 4.32L3.312 2.496H8.688L10.512 4.32V15.696L8.688 17.52H3.312L1.488 15.696V4.32ZM9.216 5.664L8.184 4.008H3.984L3 4.992V11.88L9.216 5.664ZM8.328 16.008L9.072 13.92L8.616 8.424L2.856 14.352L3.816 16.008H8.328ZM13.488 4.32L15.312 2.496H20.688L22.512 4.32V15.696L20.688 17.52H15.312L13.488 15.696V4.32ZM21.216 5.664L20.184 4.008H15.984L15 4.992V11.88L21.216 5.664ZM20.328 16.008L21.072 13.92L20.616 8.424L14.856 14.352L15.816 16.008H20.328ZM27 5.28L29.472 2.496H30.744V16.008H33V17.52H27V16.008H29.256V5.592L27 6.408V5.28Z" fill="white" fill-opacity="0.3"/>
<path d="M279.488 195.32L281.312 193.496H286.688L288.512 195.32V206.696L286.688 208.52H281.312L279.488 206.696V195.32ZM287.216 196.664L286.184 195.008H281.984L281 195.992V202.88L287.216 196.664ZM286.328 207.008L287.072 204.92L286.616 199.424L280.856 205.352L281.816 207.008H286.328ZM291.488 195.32L293.312 193.496H298.688L300.512 195.32V206.696L298.688 208.52H293.312L291.488 206.696V195.32ZM299.216 196.664L298.184 195.008H293.984L293 195.992V202.88L299.216 196.664ZM298.328 207.008L299.072 204.92L298.616 199.424L292.856 205.352L293.816 207.008H298.328ZM303.488 195.32L305.312 193.496H310.688L312.512 195.32V199.808L305.456 207.008H312.512V208.52H303.488V206.552L311.072 199.136L310.616 195.392H305.384L304.928 198.752H303.488V195.32Z" fill="white" fill-opacity="0.3"/>
</svg>
